<svg class="icon" style="margin-bottom: 4px; font-size: 24px; color: rgba(255, 0, 0, 0.8); width: 1em;height: 1em;vertical-align: middle;fill: currentColor;overflow: hidden;" viewBox="0 0 1024 1024" version="1.1" xmlns="http://www.w3.org/2000/svg" p-id="1539"><path d="M100.08784 383.651a100.1 100.1 0 0 1 58.297 181.43v141.987c0 13.877 6.341 26.816 16.949 35.347l5.687 3.868 296.743 171.334c12 6.939 26.36 7.963 39.1 2.958l6.143-2.958 344.403-198.833a50.05 50.05 0 0 1 55.737 82.895l-5.687 3.725-344.432 198.833a145.314 145.314 0 0 1-134.792 5.602l-10.522-5.545L130.94284 832.96a145.314 145.314 0 0 1-72.259-114.83l-0.398-11.09V574.72a100.1 100.1 0 0 1 41.774-191.041z m358.964-60.429l132.773 359.361h-84.003l-27.357-82.07h-130.84l-27.356 82.07h-84.004l130.897-359.36h89.89z m255.793-1.99v359.39H638.71784V321.26h76.127v-0.057zM551.64284 9.332l10.892 4.607 10.522 5.517 296.77 171.362a145.286 145.286 0 0 1 72.288 114.745l0.398 11.147v76.07a100.1 100.1 0 1 1-100.099 9.583V316.71a45.244 45.244 0 0 0-16.948-35.376l-5.688-3.867-296.742-171.335a45.329 45.329 0 0 0-39.102-2.986l-6.142 2.986L133.38784 304.994a50.05 50.05 0 0 1-55.737-82.866l5.687-3.81L427.71384 19.483A145.115 145.115 0 0 1 551.64384 9.39z m-133.711 374.29h-1.849c0 9.812-3.953 21.556-5.886 31.282l-41.035 124.981h95.691L423.81784 414.99a305.615 305.615 0 0 1-5.886-31.366z" p-id="1540"></path></svg>