<svg width="16" height="16" viewBox="0 0 16 16" fill="none" xmlns="http://www.w3.org/2000/svg">
<path fill-rule="evenodd" clip-rule="evenodd" d="M12.9248 3.06487C13.2152 3.34947 13.2152 3.83996 12.9369 4.1185L11.6785 5.39012C11.3941 5.68079 10.9041 5.68079 10.6258 5.40223C10.3354 5.11158 10.3354 4.62715 10.6137 4.34255L11.8721 3.07698C12.1564 2.79238 12.6465 2.78027 12.9248 3.06487ZM3.3051 14.1037C2.94215 14.4731 2.325 14.4671 1.96806 14.1037C1.61104 13.7344 1.61104 13.1349 1.96806 12.7655L7.70961 6.97663C8.07261 6.61331 8.68973 6.61331 9.04668 6.97663C9.40968 7.346 9.40364 7.94549 9.04668 8.3088L3.3051 14.1037ZM12.949 12.9169C13.2273 12.6383 13.2213 12.1479 12.9369 11.8633L11.6724 10.6038C11.3881 10.3252 10.898 10.3312 10.6137 10.6159C10.3354 10.9005 10.3414 11.3849 10.6258 11.6695L11.8902 12.9351C12.1746 13.2137 12.6647 13.2076 12.949 12.9169ZM5.3924 4.34255C5.67074 4.62715 5.67074 5.11158 5.38027 5.40223C5.10201 5.68079 4.61196 5.68079 4.3276 5.39012L3.06313 4.12456C2.77877 3.84602 2.78478 3.35553 3.07517 3.06487C3.35352 2.78027 3.84357 2.79238 4.12793 3.07698L5.3924 4.34255ZM8.00001 1C7.59465 1 7.25584 1.34515 7.25584 1.75086V3.59774C7.25584 4.00345 7.59465 4.34255 8.00001 4.34255C8.40537 4.34255 8.75023 4.00345 8.75023 3.59774V1.75086C8.75023 1.34515 8.40537 1 8.00001 1ZM15 7.99998C15 7.59427 14.6612 7.25517 14.2558 7.25517H12.4105C12.0052 7.25517 11.6603 7.59427 11.6603 7.99998C11.6603 8.40569 12.0052 8.74479 12.4105 8.74479H14.2558C14.6612 8.74479 15 8.40569 15 7.99998ZM1 7.99998C1 8.40569 1.3449 8.74479 1.75025 8.74479H3.58947C3.99482 8.74479 4.33972 8.40569 4.33972 7.99998C4.33972 7.59427 3.99482 7.25517 3.58947 7.25517H1.75025C1.3449 7.25517 1 7.59427 1 7.99998ZM8.00001 11.6574C7.59465 11.6574 7.25584 12.0026 7.25584 12.4083V14.2491C7.25584 14.6548 7.59465 15 8.00001 15C8.40537 15 8.75023 14.6548 8.75023 14.2491V12.4083C8.75023 12.0026 8.40537 11.6574 8.00001 11.6574Z" fill="#42464E"/>
</svg>
