<svg class="icon" style="width: 1.5em;height: 1.5em;vertical-align: middle;fill: currentColor;overflow: hidden;" viewBox="0 0 1024 1024" version="1.1" xmlns="http://www.w3.org/2000/svg" p-id="2302"><path d="M419.622615 789.452514h205.944134v131.575419c0 56.869184-46.108603 102.972067-102.972067 102.972067-56.874905 0-102.972067-46.102883-102.972067-102.972067v-131.575419z" fill="#C5AC95" p-id="2303"></path><path d="M118.023151 571.002994c0 50.330458 40.799821 91.130279 91.130279 91.13028 50.324737 0 91.124559-40.799821 91.124559-91.13028 0-50.324737-40.799821-91.124559-91.13028-91.124558-50.324737 0-91.124559 40.799821-91.124558 91.130279z" fill="#C9AB90" p-id="2304"></path><path d="M749.407821 326.078212m-91.530726 0a91.530726 91.530726 0 1 0 183.061452 0 91.530726 91.530726 0 1 0-183.061452 0Z" fill="#4D4132" p-id="2305"></path><path d="M423.329609 208.804469a185.921788 180.201117 90 1 0 360.402235 0 185.921788 180.201117 90 1 0-360.402235 0Z" fill="#4D4132" p-id="2306"></path><path d="M486.256983 137.296089h11.441341c164.291933 0 297.47486 133.182927 297.47486 297.474861v205.944134c0 164.291933-133.182927 297.47486-297.47486 297.47486h-11.441341c-164.291933 0-297.47486-133.182927-297.47486-297.47486V434.77095c0-164.291933 133.182927-297.47486 297.47486-297.474861z" fill="#EBD3BD" p-id="2307"></path><path d="M400.446927 154.458101m-154.4581 0a154.458101 154.458101 0 1 0 308.916201 0 154.458101 154.458101 0 1 0-308.916201 0Z" fill="#4D4132" p-id="2308"></path><path d="M503.418994 165.899441a91.530726 88.670391 90 1 0 177.340783 0 91.530726 88.670391 90 1 0-177.340783 0Z" fill="#4D4132" p-id="2309"></path><path d="M314.636872 726.52514c0 63.190525 51.222883 114.413408 114.413407 114.413407s114.413408-51.222883 114.413408-114.413407H314.636872z" fill="#E89E80" p-id="2310"></path><path d="M725.529743 565.282324c0 50.330458 40.799821 91.130279 91.124559 91.130279s91.130279-40.799821 91.130279-91.130279c0-50.324737-40.805542-91.124559-91.130279-91.124559s-91.130279 40.799821-91.13028 91.13028z" fill="#EBD3BD" p-id="2311"></path><path d="M776.151955 560.877408a40.502346 40.502346 0 1 0 81.004693 0.017162 40.502346 40.502346 0 0 0-81.004693-0.017162z" fill="#E89E80" p-id="2312"></path><path d="M209.147709 439.376089a81.004693 81.004693 0 1 0 162.003665 0c0-44.735642-36.26905-80.998972-81.004692-80.998972s-80.998972 36.26905-80.998973 81.004693z" fill="#FFFFFF" p-id="2313"></path><path d="M249.650056 444.438883a35.439553 35.439553 0 1 0 70.879106 0 35.439553 35.439553 0 0 0-70.879106 0z" fill="#514141" p-id="2314"></path><path d="M492.652693 439.376089c0 44.735642 36.26905 81.004693 81.004692 81.004693s80.993251-36.26905 80.993252-81.004693-36.26333-80.998972-80.998972-80.998972-81.004693 36.26905-81.004693 81.004693z" fill="#FFFFFF" p-id="2315"></path><path d="M533.155039 444.438883a35.439553 35.439553 0 1 0 70.873386 0 35.439553 35.439553 0 0 0-70.879107 0z" fill="#514141" p-id="2316"></path></svg>