<svg width="118" height="46" viewBox="0 0 118 46" fill="none" xmlns="http://www.w3.org/2000/svg">
<mask id="path-1-inside-1_0_19717" fill="white">
<path fill-rule="evenodd" clip-rule="evenodd" d="M12.5 0C5.87258 0 0.5 5.37258 0.5 12V34C0.5 40.6274 5.87258 46 12.5 46H100.5C107.127 46 112.5 40.6274 112.5 34V31.3677L117.123 28.5126C117.755 28.1218 117.755 27.2018 117.123 26.811L112.5 23.9559V12C112.5 5.37258 107.127 0 100.5 0H12.5Z"/>
</mask>
<path fill-rule="evenodd" clip-rule="evenodd" d="M12.5 0C5.87258 0 0.5 5.37258 0.5 12V34C0.5 40.6274 5.87258 46 12.5 46H100.5C107.127 46 112.5 40.6274 112.5 34V31.3677L117.123 28.5126C117.755 28.1218 117.755 27.2018 117.123 26.811L112.5 23.9559V12C112.5 5.37258 107.127 0 100.5 0H12.5Z" fill="#FAFBFC"/>
<path d="M112.5 31.3677L111.975 30.5169L111.5 30.81V31.3677H112.5ZM117.123 28.5126L117.648 29.3634H117.648L117.123 28.5126ZM117.123 26.811L117.648 25.9602L117.123 26.811ZM112.5 23.9559H111.5V24.5136L111.975 24.8067L112.5 23.9559ZM1.5 12C1.5 5.92487 6.42487 1 12.5 1V-1C5.3203 -1 -0.5 4.8203 -0.5 12H1.5ZM1.5 34V12H-0.5V34H1.5ZM12.5 45C6.42487 45 1.5 40.0751 1.5 34H-0.5C-0.5 41.1797 5.3203 47 12.5 47V45ZM100.5 45H12.5V47H100.5V45ZM111.5 34C111.5 40.0751 106.575 45 100.5 45V47C107.68 47 113.5 41.1797 113.5 34H111.5ZM111.5 31.3677V34H113.5V31.3677H111.5ZM113.025 32.2185L117.648 29.3634L116.597 27.6618L111.975 30.5169L113.025 32.2185ZM117.648 29.3634C118.913 28.5818 118.913 26.7417 117.648 25.9602L116.597 27.6618L116.597 27.6618L117.648 29.3634ZM117.648 25.9602L113.025 23.1051L111.975 24.8067L116.597 27.6618L117.648 25.9602ZM111.5 12V23.9559H113.5V12H111.5ZM100.5 1C106.575 1 111.5 5.92487 111.5 12H113.5C113.5 4.8203 107.68 -1 100.5 -1V1ZM12.5 1H100.5V-1H12.5V1Z" fill="url(#paint0_linear_0_19717)" mask="url(#path-1-inside-1_0_19717)"/>
<defs>
<linearGradient id="paint0_linear_0_19717" x1="46.0069" y1="23" x2="117.597" y2="23" gradientUnits="userSpaceOnUse">
<stop stop-color="#004FFF"/>
<stop offset="1" stop-color="#9865FF"/>
</linearGradient>
</defs>
</svg>
