<svg width="48" height="48" viewBox="0 0 48 48" fill="none" xmlns="http://www.w3.org/2000/svg">
<rect y="48" width="48" height="48" rx="24" transform="rotate(-90 0 48)" fill="#DEE3E9" fill-opacity="0.4"/>
<path fill-rule="evenodd" clip-rule="evenodd" d="M13.4783 16.9989H27.1739C27.6896 16.9989 28.1121 17.3979 28.1495 17.9041L28.1522 17.9771V31.6728C28.1522 32.1885 27.7531 32.611 27.2469 32.6484L27.1739 32.651H13.4783C12.9625 32.651 12.54 32.252 12.5027 31.7458L12.5 31.6728V17.9771C12.5 17.4614 12.8991 17.0389 13.4053 17.0016L13.4783 16.9989H27.1739H13.4783ZM34.9999 20.6831V28.9666C34.9999 29.727 34.0875 30.1967 33.3702 29.8055L29.6195 27.7597V21.8901L33.3702 19.8443C34.0875 19.4531 34.9999 19.9227 34.9999 20.6831Z" fill="#737A87"/>
<path fill-rule="evenodd" clip-rule="evenodd" d="M18 20C19.1046 20 20 20.8954 20 22C20 23.1046 19.1046 24 18 24C16.8954 24 16 23.1046 16 22C16 20.8954 16.8954 20 18 20Z" fill="#F2F4F6"/>
</svg>
