<svg width="48" height="48" viewBox="0 0 48 48" fill="none" xmlns="http://www.w3.org/2000/svg">
<rect y="48" width="48" height="48" rx="24" transform="rotate(-90 0 48)" fill="#DEE3E9" fill-opacity="0.4"/>
<path fill-rule="evenodd" clip-rule="evenodd" d="M14.2951 17.7307C13.9228 17.8334 13.6494 18.1745 13.6494 18.5795V30.9055L13.6518 30.9713C13.6854 31.4268 14.0657 31.786 14.5298 31.786H26.8559L26.9216 31.7836C27.2974 31.7558 27.6076 31.4923 27.7047 31.1403L14.2951 17.7307ZM32.7781 29.3406L29.057 25.6195V22.101L32.4326 20.2597C33.0781 19.9076 33.8994 20.3303 33.8994 21.0147V28.4699C33.8994 29.0359 33.3376 29.4229 32.7781 29.3406ZM27.7364 24.2989L21.1365 17.699H26.8559C27.3201 17.699 27.7003 18.0582 27.734 18.5137L27.7364 18.5795V24.2989Z" fill="#F53F3F"/>
<path d="M15.2998 15.3007L32.6998 32.7007" stroke="#F53F3F" stroke-width="1.215" stroke-linecap="round" stroke-linejoin="round"/>
</svg>
