<svg class="icon" style="width: 24px;height: 24px; color: white; vertical-align: middle;fill: currentColor;overflow: hidden;" viewBox="0 0 1024 1024" version="1.1" xmlns="http://www.w3.org/2000/svg" p-id="3346"><path d="M721.481143 626.980571c51.2 0 93.037714-41.910857 93.037714-93.110857V161.645714c0-51.2-41.837714-93.184-93.037714-93.184H116.297143c-51.2 0-93.110857 41.910857-93.110857 93.110857V533.942857c0 51.2 41.910857 93.110857 93.110857 93.110857h103.350857l99.108571 171.739429 1.462858 1.462857c1.316571 1.828571 2.706286 3.218286 4.608 5.12 1.828571 1.828571 3.218286 3.218286 5.12 4.608l1.389714 1.389714c1.389714 0.950857 2.779429 0.950857 4.169143 1.389715 2.340571 0.950857 4.681143 1.828571 7.021714 2.340571a30.72 30.72 0 0 0 6.509714 0.438857c2.340571 0 4.169143 0 6.509715-0.438857a40.96 40.96 0 0 0 6.948571-2.340571c1.462857-0.438857 2.779429-0.438857 4.242286-1.462858l1.389714-1.316571a24.429714 24.429714 0 0 0 5.12-4.681143c1.828571-1.828571 3.218286-3.218286 4.608-5.12l1.462857-1.389714 99.108572-171.739429h242.980571z m-293.302857-52.150857L349.184 711.68 269.897143 574.902857a35.035429 35.035429 0 0 0-30.281143-17.773714H139.702857a46.665143 46.665143 0 0 1-46.518857-46.518857V184.758857c0-25.6 20.918857-46.518857 46.518857-46.518857h558.518857c25.6 0 46.592 20.918857 46.592 46.518857v325.851429c0 25.6-20.992 46.518857-46.592 46.518857H458.459429a35.035429 35.035429 0 0 0-30.208 17.700571z m479.451428-366.738285h-11.629714a35.108571 35.108571 0 0 0-34.889143 34.889142c0 19.017143 15.798857 34.889143 34.889143 34.889143a35.108571 35.108571 0 0 1 34.889143 34.889143V650.24c0 25.6-20.918857 46.518857-46.518857 46.518857h-100.059429c-12.580571 0-24.210286 6.582857-30.281143 17.700572L674.889143 851.382857 595.748571 714.605714a35.035429 35.035429 0 0 0-30.208-17.773714h-60.489142a35.108571 35.108571 0 0 0-34.962286 34.962286c0 19.017143 15.872 34.889143 34.962286 34.889143h40.448l99.181714 171.739428 1.389714 1.462857c1.389714 1.828571 2.779429 3.218286 4.608 5.12a46.372571 46.372571 0 0 0 5.12 4.608l1.462857 1.389715c1.389714 0.950857 2.779429 0.950857 4.169143 1.389714 2.340571 0.950857 4.608 1.828571 6.948572 2.340571a30.72 30.72 0 0 0 6.582857 0.438857c2.267429 0 4.169143 0 6.436571-0.438857 2.340571-0.512 4.681143-1.462857 7.021714-2.340571 1.389714-0.438857 2.779429-0.438857 4.169143-1.462857l1.462857-1.316572a24.356571 24.356571 0 0 0 5.12-4.681143c1.828571-1.828571 3.218286-3.218286 4.608-5.12l1.389715-1.389714 99.108571-171.739428h103.350857c51.2 0 93.110857-41.910857 93.110857-93.110858v-372.297142c0-51.2-41.910857-93.110857-93.110857-93.110858zM529.700571 332.8H448.219429c-6.509714 0-11.629714-5.12-11.629715-11.702857V239.762286a35.108571 35.108571 0 0 0-34.889143-34.889143 35.108571 35.108571 0 0 0-34.889142 34.889143v116.370285c0 25.6 20.918857 46.592 46.518857 46.592h116.297143a35.108571 35.108571 0 0 0 34.962285-34.962285 35.108571 35.108571 0 0 0-34.889143-34.889143z" p-id="3347"></path></svg>