<svg width="24" height="24" viewBox="0 0 24 24" fill="none" xmlns="http://www.w3.org/2000/svg">
<path fill-rule="evenodd" clip-rule="evenodd" d="M22 12.9899C22 18.4882 17.5428 22.9454 12.0445 22.9454C6.54618 22.9454 2.08893 18.4882 2.08893 12.9899C2.08893 7.49166 6.54618 3.03442 12.0445 3.03442C17.5428 3.03442 22 7.49166 22 12.9899Z" fill="#141414" fill-opacity="0.08"/>
<path d="M12 21.9943C17.5228 21.9943 22 17.5172 22 11.9943C22 6.47152 17.5228 1.99438 12 1.99438C6.47715 1.99438 2 6.47152 2 11.9943C2 17.5172 6.47715 21.9943 12 21.9943Z" fill="#387BFF"/>
<path fill-rule="evenodd" clip-rule="evenodd" d="M12 20.3276C16.6024 20.3276 20.3333 16.5967 20.3333 11.9943C20.3333 7.39199 16.6024 3.66105 12 3.66105C7.39762 3.66105 3.66667 7.39199 3.66667 11.9943C3.66667 16.5967 7.39762 20.3276 12 20.3276ZM22 11.9943C22 17.5172 17.5228 21.9943 12 21.9943C6.47715 21.9943 2 17.5172 2 11.9943C2 6.47152 6.47715 1.99438 12 1.99438C17.5228 1.99438 22 6.47152 22 11.9943Z" fill="#1664FF"/>
<path fill-rule="evenodd" clip-rule="evenodd" d="M13.1155 10.2443C13.2491 10.2443 13.3575 10.3526 13.3575 10.4862L13.3589 15.6675H14.478C14.6116 15.6675 14.72 15.7759 14.72 15.9095V17.2245C14.72 17.3582 14.6116 17.4665 14.478 17.4665L10.4285 17.4667C10.2949 17.4667 10.1866 17.3584 10.1866 17.2247V15.9095C10.1866 15.7759 10.2949 15.6675 10.4285 15.6675H11.5392L11.5381 12.0431H11.1572C11.0236 12.0431 10.9152 11.9347 10.9152 11.8011V10.4863C10.9152 10.3526 11.0236 10.2443 11.1572 10.2443H13.1155ZM12.9168 7.51782C13.0504 7.51782 13.1588 7.62616 13.1588 7.7598V9.08666C13.1588 9.2203 13.0504 9.32863 12.9168 9.32863H11.5341C11.4004 9.32863 11.2921 9.2203 11.2921 9.08666V7.7598C11.2921 7.62616 11.4004 7.51782 11.5341 7.51782L12.9168 7.51782Z" fill="#141414" fill-opacity="0.2"/>
<path fill-rule="evenodd" clip-rule="evenodd" d="M12.6178 9.74648C12.7514 9.74648 12.8597 9.85478 12.8598 9.98839L12.8612 15.1697H13.9803C14.1139 15.1697 14.2222 15.2781 14.2222 15.4117V16.7267C14.2222 16.8604 14.1139 16.9687 13.9803 16.9687L9.9308 16.9689C9.79716 16.9689 9.68881 16.8606 9.68881 16.7269V15.4117C9.68881 15.2781 9.79715 15.1697 9.93079 15.1697H11.0414L11.0404 11.5453H10.6595C10.5258 11.5453 10.4175 11.4369 10.4175 11.3033V9.98846C10.4175 9.85482 10.5258 9.74648 10.6595 9.74648H12.6178ZM12.4191 7.02002C12.5527 7.02002 12.661 7.12836 12.661 7.26199V8.58886C12.661 8.72249 12.5527 8.83083 12.4191 8.83083H11.0363C10.9027 8.83083 10.7944 8.72249 10.7944 8.58886V7.26199C10.7944 7.12836 10.9027 7.02002 11.0363 7.02002L12.4191 7.02002Z" fill="white"/>
</svg>
