<svg width="48" height="48" viewBox="0 0 48 48" fill="none" xmlns="http://www.w3.org/2000/svg">
<rect y="48" width="48" height="48" rx="24" transform="rotate(-90 0 48)" fill="#FF706D"/>
<path d="M32.8228 22.8228C32.0486 22.0486 30.5334 21.5649 29.3985 21.2955C27.8787 20.9346 26.064 20.7232 24.2888 20.7001H24.2823L23.7113 20.7001C21.9361 20.7231 20.1214 20.9347 18.6016 21.2955C17.4667 21.565 15.9514 22.0486 15.1772 22.8228C14.3487 23.6513 14.0618 25.1231 13.9769 25.7174C13.9106 26.1812 13.7403 27.7403 14.3303 28.3303C14.5726 28.5726 14.992 28.6749 15.6905 28.6622C16.3083 28.651 16.9901 28.5512 17.4534 28.4694C18.0754 28.3596 18.6953 28.2134 19.1992 28.0577C20.015 27.8056 20.2765 27.6093 20.4023 27.4835C20.6561 27.2296 20.7437 26.8768 20.6626 26.435C20.6092 26.1442 20.492 25.8481 20.3786 25.5618C20.3021 25.3688 20.18 25.0605 20.1633 24.9129C20.3133 24.8203 20.7314 24.6525 21.5664 24.4941C22.3444 24.3466 23.2536 24.2527 24.0001 24.2427C24.7464 24.2527 25.6556 24.3464 26.4337 24.4942C27.2685 24.6525 27.6866 24.8202 27.8367 24.9129C27.82 25.0604 27.6979 25.3687 27.6214 25.5618C27.508 25.848 27.3907 26.1441 27.3374 26.4351C27.2563 26.8768 27.3439 27.2296 27.5978 27.4834C27.7235 27.6092 27.9851 27.8055 28.8009 28.0578C29.3047 28.2134 29.9247 28.3597 30.5466 28.4694C31.0099 28.5511 31.6918 28.6509 32.3095 28.6622C33.008 28.6749 33.4274 28.5726 33.6697 28.3303C34.2597 27.7403 34.0894 26.1812 34.0232 25.7175C33.9382 25.1231 33.6513 23.6513 32.8228 22.8228Z" fill="white"/>
</svg>
