<svg width="22" height="22" viewBox="0 0 22 19.5" fill="none" xmlns="http://www.w3.org/2000/svg">
<path fill-rule="evenodd" clip-rule="evenodd" d="M13.4248 3.91424C13.7152 4.19884 13.7152 4.68932 13.4369 4.96786L12.1785 6.23949C11.8941 6.53015 11.4041 6.53015 11.1258 6.2516C10.8354 5.96095 10.8354 5.47652 11.1137 5.19191L12.3721 3.92635C12.6564 3.64174 13.1465 3.62964 13.4248 3.91424ZM3.8051 14.9531C3.44215 15.3225 2.825 15.3165 2.46806 14.9531C2.11104 14.5837 2.11104 13.9843 2.46806 13.6149L8.20961 7.826C8.57261 7.46267 9.18973 7.46267 9.54668 7.826C9.90968 8.19537 9.90364 8.79485 9.54668 9.15817L3.8051 14.9531ZM13.449 13.7663C13.7273 13.4877 13.7213 12.9972 13.4369 12.7126L12.1724 11.4532C11.8881 11.1746 11.398 11.1806 11.1137 11.4652C10.8354 11.7498 10.8414 12.2343 11.1258 12.5189L12.3902 13.7845C12.6746 14.063 13.1647 14.0569 13.449 13.7663ZM5.8924 5.19191C6.17074 5.47652 6.17074 5.96095 5.88027 6.2516C5.60201 6.53015 5.11196 6.53015 4.8276 6.23949L3.56313 4.97392C3.27877 4.69538 3.28478 4.2049 3.57517 3.91424C3.85352 3.62964 4.34356 3.64174 4.62793 3.92635L5.8924 5.19191ZM8.50001 1.84937C8.09465 1.84937 7.75584 2.19452 7.75584 2.60023V4.44711C7.75584 4.85282 8.09465 5.19191 8.50001 5.19191C8.90537 5.19191 9.25023 4.85282 9.25023 4.44711V2.60023C9.25023 2.19452 8.90537 1.84937 8.50001 1.84937ZM15.5 8.84935C15.5 8.44363 15.1612 8.10454 14.7558 8.10454H12.9105C12.5052 8.10454 12.1603 8.44363 12.1603 8.84935C12.1603 9.25506 12.5052 9.59415 12.9105 9.59415H14.7558C15.1612 9.59415 15.5 9.25506 15.5 8.84935ZM1.5 8.84935C1.5 9.25506 1.8449 9.59415 2.25025 9.59415H4.08947C4.49482 9.59415 4.83972 9.25506 4.83972 8.84935C4.83972 8.44363 4.49482 8.10454 4.08947 8.10454H2.25025C1.8449 8.10454 1.5 8.44363 1.5 8.84935ZM8.50001 12.5068C8.09465 12.5068 7.75584 12.852 7.75584 13.2577V15.0985C7.75584 15.5042 8.09465 15.8494 8.50001 15.8494C8.90537 15.8494 9.25023 15.5042 9.25023 15.0985V13.2577C9.25023 12.852 8.90537 12.5068 8.50001 12.5068Z" fill="white"/>
</svg>
