<svg width="48" height="48" viewBox="0 0 48 48" fill="none" xmlns="http://www.w3.org/2000/svg">
<rect y="48" width="48" height="48" rx="24" transform="rotate(-90 0 48)" fill="#DEE3E9" fill-opacity="0.4"/>
<path fill-rule="evenodd" clip-rule="evenodd" d="M15.9963 18.6205C15.996 18.6387 15.9959 18.6569 15.9959 18.6752V23.3139C15.9959 25.9367 18.1222 28.063 20.7451 28.063C22.0483 28.063 23.229 27.5381 24.0871 26.6881L15.9963 18.6205ZM25.7208 28.3172L26.9786 29.5713C25.6979 31.1092 23.8436 32.1639 21.7407 32.4194V33.365C21.7407 33.853 21.3451 34.2486 20.8571 34.2486C20.3692 34.2486 19.9736 33.853 19.9736 33.365V32.4435C17.5281 32.2143 15.3981 30.907 14.0824 29.0063C13.8047 28.6051 13.9048 28.0547 14.3061 27.7769C14.7073 27.4992 15.2577 27.5993 15.5354 28.0005C16.6675 29.636 18.5763 30.7123 20.7453 30.7123C22.771 30.7123 24.5698 29.7735 25.7208 28.3172ZM22.514 19.9752L17.6221 15.0972C18.457 14.3679 19.5494 13.926 20.7451 13.926C23.1067 13.926 25.0656 15.6497 25.4325 17.9077C25.3796 17.9048 25.3264 17.9033 25.2728 17.9033C23.9644 17.9033 22.8604 18.7784 22.514 19.9752ZM25.2708 21.8803C25.8808 21.8803 26.3753 21.3858 26.3753 20.7758C26.3753 20.1659 25.8808 19.6714 25.2708 19.6714C24.6609 19.6714 24.1664 20.1659 24.1664 20.7758C24.1664 21.3858 24.6609 21.8803 25.2708 21.8803ZM29.6263 18.6146C29.4094 18.1775 28.8792 17.999 28.4421 18.2158C28.005 18.4327 27.8264 18.9629 28.0433 19.4C28.2536 19.8239 28.3654 20.2937 28.3655 20.774C28.3656 21.3205 28.221 21.8535 27.9512 22.3207C27.7073 22.7433 27.8521 23.2837 28.2747 23.5277C28.6973 23.7716 29.2377 23.6268 29.4816 23.2042C29.9054 22.4701 30.1328 21.6326 30.1326 20.7737C30.1325 20.0189 29.9567 19.2806 29.6263 18.6146ZM33.0038 16.4939C32.7676 16.0669 32.23 15.9123 31.803 16.1486C31.376 16.3848 31.2214 16.9225 31.4576 17.3494C32.0357 18.3942 32.3426 19.574 32.3412 20.7797C32.3398 22.0232 32.0104 23.2384 31.3942 24.3058C31.1502 24.7284 31.295 25.2687 31.7176 25.5127C32.1402 25.7567 32.6806 25.6119 32.9246 25.1893C33.6949 23.8552 34.1065 22.3362 34.1083 20.7817C34.1101 19.2746 33.7264 17.7999 33.0038 16.4939Z" fill="#FF3A2F"/>
<path fill-rule="evenodd" clip-rule="evenodd" d="M13.408 14.0475C13.2318 14.2237 13.2318 14.5101 13.408 14.6862L31.2945 32.5727C31.4711 32.7493 31.757 32.7493 31.9336 32.5727L32.5723 31.934C32.7485 31.7574 32.7485 31.4715 32.5723 31.2953L30.4737 29.1967L29.1922 27.9148L27.9067 26.6297L26.6112 25.3337L24.3265 23.0495L22.5197 21.2427L20.7007 19.4232L19.412 18.135L14.6859 13.4088C14.5092 13.2322 14.2233 13.2322 14.0472 13.4088L13.408 14.0475Z" fill="#FF3A2F"/>
</svg>
