<svg width="16" height="16" viewBox="0 0 16 16" fill="none" xmlns="http://www.w3.org/2000/svg">
<path fill-rule="evenodd" clip-rule="evenodd" d="M9.19993 12.5333C9.34721 12.5333 9.4666 12.6527 9.4666 12.8L9.4666 14.8C9.4666 14.9473 9.34721 15.0667 9.19994 15.0667H8.53327C8.38599 15.0667 8.2666 14.9473 8.2666 14.8L8.2666 12.8C8.2666 12.6527 8.38599 12.5333 8.53327 12.5333H9.19993Z" fill="#42464E"/>
<mask id="mask0_0_20534" style="mask-type:alpha" maskUnits="userSpaceOnUse" x="3" y="1" width="12" height="13">
<path fill-rule="evenodd" clip-rule="evenodd" d="M5.38696 4.76269C5.38696 2.7701 6.99531 1.15002 8.98517 1.15002C10.975 1.15002 12.5834 2.7701 12.5834 4.76269V8.17069C12.5834 10.1633 10.975 11.7834 8.98517 11.7834C6.99531 11.7834 5.38696 10.1633 5.38696 8.17069V8.17069C5.38696 8.03041 5.27324 7.91669 5.13296 7.91669H4.9938C4.84338 7.91669 4.72197 8.04134 4.73541 8.19116C4.94205 10.4937 6.84596 12.35 8.93338 12.35C11.1477 12.35 13.15 10.2666 13.15 7.76632V7.01669C13.15 6.86942 13.2694 6.75002 13.4167 6.75002H14.05C14.1973 6.75002 14.3167 6.86942 14.3167 7.01669V7.76632C14.3167 10.8261 11.8737 13.5167 8.93338 13.5167C5.99308 13.5167 3.55005 10.8261 3.55005 7.76632V7.01669C3.55005 6.86942 3.66944 6.75002 3.81672 6.75002H6.28696C6.43424 6.75002 6.55363 6.86942 6.55363 7.01669V8.17069C6.55363 9.52421 7.6449 10.6167 8.98517 10.6167C10.3254 10.6167 11.4167 9.52421 11.4167 8.17069V4.76269C11.4167 3.40917 10.3254 2.31669 8.98517 2.31669C7.6449 2.31669 6.55363 3.40917 6.55363 4.76269V6.20002C6.55363 6.3473 6.43424 6.46669 6.28696 6.46669H5.65363C5.50635 6.46669 5.38696 6.3473 5.38696 6.20002V4.76269Z" fill="url(#paint0_angular_0_20534)"/>
</mask>
<g mask="url(#mask0_0_20534)">
<path d="M13.7333 7.3334V7.76636C13.7333 10.5464 11.5106 12.9334 8.9333 12.9334C6.35597 12.9334 4.1333 10.5464 4.1333 7.76636V7.3334H5.97022V8.17073C5.97022 9.84379 7.32002 11.2001 8.98509 11.2001C10.6502 11.2001 12 9.84379 12 8.17073V4.76273C12 3.08968 10.6502 1.7334 8.98509 1.7334C7.32002 1.7334 5.97022 3.08968 5.97022 4.76273V6.46673" stroke="#42464E" stroke-width="1.16667" stroke-linecap="square"/>
</g>
<path d="M4 2.66663L13.7778 13.3333" stroke="#42464E" stroke-width="1.33333" stroke-linecap="round"/>
<defs>
<radialGradient id="paint0_angular_0_20534" cx="0" cy="0" r="1" gradientUnits="userSpaceOnUse" gradientTransform="translate(8.99607 6.91415) rotate(-179.174) scale(4.89006 6.06315)">
<stop offset="0.746862"/>
<stop offset="0.986207" stop-opacity="0"/>
<stop offset="0.99946"/>
</radialGradient>
</defs>
</svg>
