<svg width="16" height="16" viewBox="0 0 16 16" fill="none" xmlns="http://www.w3.org/2000/svg">
<path fill-rule="evenodd" clip-rule="evenodd" d="M4.21946 1.20463C4.26695 1.02117 4.52725 1.02055 4.57561 1.20379L4.62363 1.38575C4.69125 1.64199 4.89137 1.84212 5.14762 1.90974L5.32958 1.95776C5.51281 2.00612 5.5122 2.26642 5.32873 2.31391L5.14992 2.36019C4.89215 2.4269 4.69049 2.62761 4.62255 2.88506L4.57561 3.06294C4.52725 3.24618 4.26695 3.24556 4.21946 3.06209L4.17424 2.88738C4.10721 2.6284 3.90497 2.42616 3.64598 2.35912L3.47127 2.31391C3.28781 2.26642 3.28719 2.00612 3.47043 1.95776L3.64831 1.91082C3.90576 1.84287 4.10646 1.64121 4.17318 1.38344L4.21946 1.20463ZM2.39585 3.80693C2.46708 3.53174 2.85754 3.53081 2.93007 3.80566L3.0021 4.07861C3.10354 4.46297 3.40372 4.76316 3.78809 4.86459L4.06103 4.93662C4.33589 5.00916 4.33496 5.39961 4.05976 5.47084L3.79155 5.54026C3.40489 5.64034 3.1024 5.94139 3.00049 6.32757L2.93007 6.59439C2.85754 6.86925 2.46708 6.86832 2.39585 6.59312L2.32803 6.33106C2.22748 5.94258 1.92411 5.63922 1.53564 5.53867L1.27357 5.47084C0.998374 5.39961 0.997446 5.00916 1.2723 4.93662L1.53912 4.86621C1.9253 4.7643 2.22636 4.46181 2.32643 4.07515L2.39585 3.80693ZM9.46664 12.8001C9.46664 12.6529 9.34725 12.5335 9.19998 12.5335H8.53331C8.38603 12.5335 8.26664 12.6529 8.26664 12.8001V14.8001C8.26664 14.9474 8.38603 15.0668 8.53331 15.0668H9.19998C9.34725 15.0668 9.46664 14.9474 9.46664 14.8001V12.8001Z" fill="url(#paint0_linear_0_19944)"/>
<rect x="5.33333" y="1.33333" width="7.11111" height="10.2222" rx="3.55556" fill="url(#paint1_linear_0_19944)"/>
<mask id="mask0_0_19944" style="mask-type:alpha" maskUnits="userSpaceOnUse" x="3" y="1" width="12" height="13">
<path fill-rule="evenodd" clip-rule="evenodd" d="M5.38692 4.7628C5.38692 2.77021 6.99526 1.15013 8.98513 1.15013C10.975 1.15013 12.5833 2.77021 12.5833 4.7628V8.1708C12.5833 10.1634 10.975 11.7835 8.98513 11.7835C6.99526 11.7835 5.38692 10.1634 5.38692 8.1708V8.1708C5.38692 8.03052 5.2732 7.9168 5.13292 7.9168H4.99376C4.84333 7.9168 4.72192 8.04145 4.73537 8.19127C4.94201 10.4938 6.84591 12.3501 8.93334 12.3501C11.1477 12.3501 13.15 10.2667 13.15 7.76642V7.0168C13.15 6.86952 13.2694 6.75013 13.4167 6.75013H14.05C14.1973 6.75013 14.3167 6.86952 14.3167 7.0168V7.76642C14.3167 10.8263 11.8736 13.5168 8.93334 13.5168C5.99304 13.5168 3.55 10.8263 3.55 7.76642V7.0168C3.55 6.86952 3.66939 6.75013 3.81667 6.75013H6.28692C6.43419 6.75013 6.55358 6.86952 6.55358 7.0168V8.1708C6.55358 9.52432 7.64485 10.6168 8.98513 10.6168C10.3254 10.6168 11.4167 9.52432 11.4167 8.1708V4.7628C11.4167 3.40928 10.3254 2.3168 8.98513 2.3168C7.64485 2.3168 6.55358 3.40928 6.55358 4.7628V6.20013C6.55358 6.34741 6.43419 6.4668 6.28692 6.4668H5.65358C5.50631 6.4668 5.38692 6.34741 5.38692 6.20013V4.7628Z" fill="url(#paint2_angular_0_19944)"/>
</mask>
<g mask="url(#mask0_0_19944)">
<path d="M13.7333 7.33337V7.76633C13.7333 10.5464 11.5107 12.9334 8.93335 12.9334C6.35602 12.9334 4.13335 10.5464 4.13335 7.76633V7.33337H5.97026V8.1707C5.97026 9.84376 7.32007 11.2 8.98514 11.2C10.6502 11.2 12 9.84376 12 8.1707V4.7627C12 3.08965 10.6502 1.73337 8.98514 1.73337C7.32007 1.73337 5.97026 3.08965 5.97026 4.7627V6.4667" stroke="url(#paint3_linear_0_19944)" stroke-width="1.16889" stroke-linecap="square"/>
</g>
<defs>
<linearGradient id="paint0_linear_0_19944" x1="4.33111" y1="8.06676" x2="9.46664" y2="8.06676" gradientUnits="userSpaceOnUse">
<stop stop-color="#004FFF"/>
<stop offset="1" stop-color="#9865FF"/>
</linearGradient>
<linearGradient id="paint1_linear_0_19944" x1="8.09689" y1="6.44444" x2="12.4444" y2="6.44444" gradientUnits="userSpaceOnUse">
<stop stop-color="#004FFF"/>
<stop offset="1" stop-color="#9865FF"/>
</linearGradient>
<radialGradient id="paint2_angular_0_19944" cx="0" cy="0" r="1" gradientUnits="userSpaceOnUse" gradientTransform="translate(8.99602 6.91425) rotate(-179.174) scale(4.89006 6.06315)">
<stop offset="0.746862"/>
<stop offset="0.986207" stop-opacity="0"/>
<stop offset="0.99946"/>
</radialGradient>
<linearGradient id="paint3_linear_0_19944" x1="7.86415" y1="7.33337" x2="13.7333" y2="7.33337" gradientUnits="userSpaceOnUse">
<stop stop-color="#004FFF"/>
<stop offset="1" stop-color="#9865FF"/>
</linearGradient>
</defs>
</svg>
