<svg width="48" height="48" viewBox="0 0 48 48" fill="none" xmlns="http://www.w3.org/2000/svg">
<rect y="48" width="48" height="48" rx="24" transform="rotate(-90 0 48)" fill="#DEE3E9" fill-opacity="0.4"/>
<path d="M15.6624 18.3417C15.6624 15.7188 17.7887 13.5925 20.4116 13.5925C22.7732 13.5925 24.7321 15.3162 25.099 17.5742C25.0461 17.5713 24.9929 17.5698 24.9393 17.5698C23.3534 17.5698 22.0677 18.8554 22.0677 20.4414C22.0677 22.0273 23.3534 23.3129 24.9393 23.3129C25.0101 23.3129 25.0803 23.3104 25.1498 23.3053C24.9828 25.7766 22.9252 27.7295 20.4116 27.7295C17.7887 27.7295 15.6624 25.6032 15.6624 22.9804V18.3417Z" fill="#737A87"/>
<path d="M24.9373 21.5468C25.5473 21.5468 26.0418 21.0523 26.0418 20.4423C26.0418 19.8324 25.5473 19.3379 24.9373 19.3379C24.3274 19.3379 23.8329 19.8324 23.8329 20.4423C23.8329 21.0523 24.3274 21.5468 24.9373 21.5468Z" fill="#737A87"/>
<path d="M28.1086 17.8823C28.5457 17.6655 29.0759 17.844 29.2928 18.2811C29.6232 18.9471 29.799 19.6854 29.7991 20.4402C29.7993 21.2991 29.5719 22.1366 29.1481 22.8707C28.9042 23.2933 28.3638 23.4381 27.9412 23.1942C27.5186 22.9502 27.3738 22.4098 27.6177 21.9872C27.8875 21.52 28.0321 20.987 28.032 20.4405C28.0319 19.9602 27.9201 19.4904 27.7098 19.0665C27.4929 18.6294 27.6715 18.0992 28.1086 17.8823Z" fill="#737A87"/>
<path d="M32.6704 16.1604C32.4341 15.7335 31.8965 15.5788 31.4695 15.8151C31.0425 16.0513 30.8879 16.589 31.1241 17.0159C31.7022 18.0607 32.0091 19.2405 32.0077 20.4462C32.0063 21.6897 31.6769 22.9049 31.0607 23.9723C30.8167 24.3949 30.9615 24.9352 31.3841 25.1792C31.8067 25.4232 32.3471 25.2784 32.5911 24.8558C33.3614 23.5217 33.773 22.0027 33.7748 20.4482C33.7766 18.9411 33.3929 17.4664 32.6704 16.1604Z" fill="#737A87"/>
<path d="M13.9726 27.4434C14.3738 27.1657 14.9242 27.2658 15.2019 27.667C16.334 29.3025 18.2428 30.3788 20.4118 30.3788C22.5808 30.3788 24.4896 29.3025 25.6217 27.667C25.8994 27.2658 26.4498 27.1657 26.851 27.4434C27.2523 27.7212 27.3524 28.2716 27.0747 28.6728C25.7993 30.5153 23.7587 31.8002 21.4072 32.0859V33.0316C21.4072 33.5195 21.0116 33.9151 20.5236 33.9151C20.0357 33.9151 19.6401 33.5195 19.6401 33.0316V32.11C17.1946 31.8808 15.0646 30.5735 13.7489 28.6728C13.4712 28.2716 13.5713 27.7212 13.9726 27.4434Z" fill="#737A87"/>
</svg>
