<svg width="16" height="16" viewBox="0 0 16 16" fill="none" xmlns="http://www.w3.org/2000/svg">
<g clip-path="url(#clip0_965_12422)">
<path d="M11.4772 13.2567L8.39327 14.8798C8.28416 14.9639 8.14936 15.0143 8.00005 15.0098C7.85074 15.0143 7.71594 14.9639 7.60682 14.8798L4.52288 13.2567C3.73629 12.8427 4.35728 11.6628 5.14388 12.0768C5.93047 12.4908 5.30948 13.6707 4.52288 13.2567L1.35622 11.59C0.569622 11.176 1.19062 9.99611 1.97721 10.4101L5.14388 12.0768L8.00005 13.58L10.8562 12.0768C11.6428 11.6628 12.2638 12.8427 11.4772 13.2567L10.8562 12.0768L11.4772 13.2567ZM4.52288 13.2567L5.14388 12.0768L4.52288 13.2567ZM11.4772 10.2567L8.39327 11.8798C8.28416 11.9639 8.14936 12.0143 8.00005 12.0098C7.85074 12.0143 7.71594 11.9639 7.60682 11.8798L4.52288 10.2567C3.73629 9.84266 4.35728 8.66277 5.14388 9.07677C5.93047 9.49077 5.30948 10.6707 4.52288 10.2567L1.35622 8.58999C0.569622 8.176 1.19062 6.99611 1.97721 7.4101L5.14388 9.07677L8.00005 10.58L10.8562 9.07677C11.6428 8.66277 12.2638 9.84266 11.4772 10.2567L10.8562 9.07677L11.4772 10.2567ZM4.52288 10.2567L5.14388 9.07677L4.52288 10.2567ZM10.8562 9.07677L14.0229 7.4101C14.8095 6.99611 15.4305 8.176 14.6439 8.58999L11.4772 10.2567C10.6906 10.6707 10.0696 9.49077 10.8562 9.07677ZM10.8562 12.0768L14.0229 10.4101C14.8095 9.99611 15.4305 11.176 14.6439 11.59L11.4772 13.2567C10.6906 13.6707 10.0696 12.4908 10.8562 12.0768ZM8.31928 1.17418L14.7969 4.70742C14.8531 4.73807 14.8993 4.78424 14.9299 4.84043C15.0181 5.00205 14.9585 5.20453 14.7969 5.29268L8.31928 8.82592C8.1203 8.93446 7.8798 8.93446 7.68081 8.82592L1.20321 5.29268C1.04159 5.20453 0.982037 5.00205 1.07019 4.84043C1.10084 4.78424 1.14702 4.73807 1.20321 4.70742L7.68081 1.17418C7.8798 1.06564 8.1203 1.06564 8.31928 1.17418ZM3.45115 5.00005L8.00005 7.48126L12.5489 5.00005L8.00005 2.51883L3.45115 5.00005Z" fill="url(#paint0_linear_965_12422)"/>
</g>
<defs>
<linearGradient id="paint0_linear_965_12422" x1="6.43916" y1="8.05143" x2="15.0074" y2="8.05143" gradientUnits="userSpaceOnUse">
<stop stop-color="#004FFF"/>
<stop offset="1" stop-color="#9865FF"/>
</linearGradient>
<clipPath id="clip0_965_12422">
<rect width="16" height="16" fill="white"/>
</clipPath>
</defs>
</svg>
