<svg width="36" height="36" viewBox="0 0 36 36" fill="none" xmlns="http://www.w3.org/2000/svg">
<path d="M9.53149 36.0001C11.8541 36.0001 14.8526 34.4529 16.9591 33.1546C19.7801 31.4163 22.8192 29.0113 25.5167 26.3832L25.5264 26.3735L26.3829 25.5168C29.0112 22.8195 31.4159 19.7803 33.1545 16.9593C34.4526 14.8527 36 11.8542 36 9.53161C36 7.04617 34.2227 4.40812 33.4585 3.38936C32.8623 2.59434 30.7792 0.00012207 29.0091 0.00012207C28.2823 0.00012207 27.4996 0.475821 26.4709 1.54267C25.5611 2.48599 24.688 3.65852 24.1159 4.47611C23.3474 5.57376 22.6369 6.72298 22.1147 7.71235C21.2691 9.31417 21.1713 10.001 21.1713 10.3784C21.1713 11.1399 21.5692 11.8005 22.3535 12.3415C22.8699 12.6977 23.4899 12.9659 24.0893 13.2253C24.4936 13.4002 25.1393 13.6793 25.3856 13.8757C25.2996 14.2396 24.9241 15.1184 23.9092 16.6085C22.9635 17.9969 21.7406 19.5015 20.6358 20.6361C19.5014 21.7407 17.997 22.9638 16.6082 23.9095C15.1185 24.924 14.2397 25.2997 13.8756 25.3857C13.6794 25.1394 13.4001 24.494 13.2252 24.0896C12.966 23.49 12.6978 22.8701 12.3414 22.3536C11.8003 21.5693 11.1398 21.1717 10.3782 21.1717C10.0009 21.1717 9.31405 21.2695 7.71202 22.1148C6.72286 22.637 5.57346 23.3476 4.47595 24.116C3.65839 24.6883 2.48586 25.5614 1.54234 26.4711C0.475697 27.4997 0 28.2824 0 29.0093C0 30.7793 2.59401 32.8624 3.38906 33.4587C4.408 34.2228 7.04601 36.0001 9.53149 36.0001Z" fill="white"/>
</svg>
