<svg class="icon" style="font-size: 24px; width: 3em;height: 3em; color: white; vertical-align: middle;fill: currentColor;overflow: hidden;" viewBox="0 0 1280 1024" version="1.1" xmlns="http://www.w3.org/2000/svg" p-id="1454"><path d="M0 512v256c0 35.4 28.6 64 64 64h64V448H64c-35.4 0-64 28.6-64 64zM928 192H704V64c0-35.4-28.6-64-64-64s-64 28.6-64 64v128H352c-88.4 0-160 71.6-160 160v544c0 70.6 57.4 128 128 128h640c70.6 0 128-57.4 128-128V352c0-88.4-71.6-160-160-160zM512 832h-128v-64h128v64z m-64-240c-44.2 0-80-35.8-80-80s35.8-80 80-80 80 35.8 80 80-35.8 80-80 80z m256 240h-128v-64h128v64z m192 0h-128v-64h128v64z m-64-240c-44.2 0-80-35.8-80-80s35.8-80 80-80 80 35.8 80 80-35.8 80-80 80z m384-144h-64v384h64c35.4 0 64-28.6 64-64V512c0-35.4-28.6-64-64-64z" p-id="1455"></path></svg>