<svg width="16" height="16" viewBox="0 0 16 16" fill="none" xmlns="http://www.w3.org/2000/svg">
<g clip-path="url(#clip0_134_2254)">
<path fill-rule="evenodd" clip-rule="evenodd" d="M7.99996 0.666667C12.05 0.666667 15.3333 3.94991 15.3333 8C15.3333 12.0501 12.05 15.3333 7.99996 15.3333C3.94987 15.3333 0.666626 12.0501 0.666626 8C0.666626 3.94991 3.94987 0.666667 7.99996 0.666667ZM7.99996 2C4.68625 2 1.99996 4.68629 1.99996 8C1.99996 11.3137 4.68625 14 7.99996 14C11.3137 14 14 11.3137 14 8C14 4.68629 11.3137 2 7.99996 2ZM9.39996 5.66667C9.91542 5.66667 10.3333 6.08453 10.3333 6.6V9.4C10.3333 9.91547 9.91542 10.3333 9.39996 10.3333H6.59996C6.08449 10.3333 5.66663 9.91547 5.66663 9.4V6.6C5.66663 6.08453 6.08449 5.66667 6.59996 5.66667H9.39996Z" fill="#737A87"/>
</g>
<defs>
<clipPath id="clip0_134_2254">
<rect width="16" height="16" fill="white"/>
</clipPath>
</defs>
</svg>
