<svg width="16" height="16" viewBox="0 0 16 16" fill="none" xmlns="http://www.w3.org/2000/svg">
<g clip-path="url(#clip0_965_12377)">
<path fill-rule="evenodd" clip-rule="evenodd" d="M8.33333 2C8.51743 2 8.66667 2.14924 8.66667 2.33333V13.6667C8.66667 13.8508 8.51743 14 8.33333 14H7.66667C7.48257 14 7.33333 13.8508 7.33333 13.6667V2.33333C7.33333 2.14924 7.48257 2 7.66667 2H8.33333ZM11 4C11.1841 4 11.3333 4.14924 11.3333 4.33333V11.6667C11.3333 11.8508 11.1841 12 11 12H10.3333C10.1492 12 10 11.8508 10 11.6667V4.33333C10 4.14924 10.1492 4 10.3333 4H11ZM5.66667 4C5.85076 4 6 4.14924 6 4.33333V11.6667C6 11.8508 5.85076 12 5.66667 12H5C4.81591 12 4.66667 11.8508 4.66667 11.6667V4.33333C4.66667 4.14924 4.81591 4 5 4H5.66667ZM13.6667 5.33333C13.8508 5.33333 14 5.48257 14 5.66667V10.3333C14 10.5174 13.8508 10.6667 13.6667 10.6667H13C12.8159 10.6667 12.6667 10.5174 12.6667 10.3333V5.66667C12.6667 5.48257 12.8159 5.33333 13 5.33333H13.6667ZM3 5.33333C3.18409 5.33333 3.33333 5.48257 3.33333 5.66667V10.3333C3.33333 10.5174 3.18409 10.6667 3 10.6667H2.33333C2.14924 10.6667 2 10.5174 2 10.3333V5.66667C2 5.48257 2.14924 5.33333 2.33333 5.33333H3Z" fill="url(#paint0_linear_965_12377)"/>
</g>
<defs>
<linearGradient id="paint0_linear_965_12377" x1="6.66351" y1="8" x2="14" y2="8" gradientUnits="userSpaceOnUse">
<stop stop-color="#004FFF"/>
<stop offset="1" stop-color="#9865FF"/>
</linearGradient>
<clipPath id="clip0_965_12377">
<rect width="16" height="16" fill="white"/>
</clipPath>
</defs>
</svg>
